<svg xmlns="http://www.w3.org/2000/svg" xmlns:xlink="http://www.w3.org/1999/xlink" width="500" zoomAndPan="magnify" viewBox="0 0 375 374.999991" height="500" preserveAspectRatio="xMidYMid meet" version="1.0"><path fill="#000000" d="M 357.238281 107.851562 C 358.277344 109.972656 359.273438 112.285156 360.226562 114.542969 C 366.109375 128.445312 370.242188 142.84375 372.609375 157.625 C 374.183594 167.4375 374.96875 177.414062 374.96875 187.507812 C 374.96875 212.804688 370.011719 237.359375 360.226562 260.488281 C 350.785156 282.816406 337.269531 302.867188 320.0625 320.074219 C 302.851562 337.285156 282.808594 350.808594 260.480469 360.25 C 237.351562 370.035156 212.796875 375.007812 187.5 375.007812 C 162.203125 375.007812 137.648438 370.082031 114.519531 360.296875 C 94.453125 351.808594 76.226562 340.144531 60.242188 325.304688 L 187.492188 325.304688 C 263.402344 325.304688 325.15625 263.425781 325.15625 187.523438 C 325.15625 177.261719 324.023438 167.214844 321.886719 157.515625 L 187.507812 157.515625 L 187.507812 157.617188 C 170.785156 157.625 157.449219 171.171875 157.449219 187.699219 C 157.449219 204.230469 170.917969 217.785156 187.492188 217.785156 L 261.511719 217.785156 C 257.550781 227.476562 251.628906 236.425781 243.949219 244.105469 C 228.871094 259.175781 208.816406 267.378906 187.492188 267.378906 C 166.167969 267.378906 146.113281 259.09375 131.042969 244.042969 C 115.953125 228.976562 107.644531 208.933594 107.644531 187.601562 C 107.644531 166.265625 115.960938 146.222656 131.058594 131.15625 C 146.136719 116.109375 166.183594 107.84375 187.515625 107.84375 Z M 357.238281 107.851562 " fill-opacity="1" fill-rule="nonzero"/><path fill="#fbb040" d="M 0.0390625 187.515625 C 0.0390625 162.21875 4.996094 137.640625 14.78125 114.519531 C 24.222656 92.191406 37.738281 72.140625 54.945312 54.933594 C 72.15625 37.722656 92.199219 24.199219 114.527344 14.757812 C 137.65625 4.980469 162.210938 0 187.507812 0 C 212.804688 0 237.359375 4.925781 260.488281 14.710938 C 280.554688 23.199219 298.78125 34.863281 314.765625 49.703125 L 187.507812 49.703125 C 111.597656 49.703125 49.84375 111.566406 49.84375 187.476562 C 49.84375 217.234375 59.332031 244.753906 75.453125 267.464844 L 17.871094 267.464844 C 16.800781 265.042969 15.765625 262.855469 14.789062 260.527344 C 4.996094 237.390625 0.0390625 212.820312 0.0390625 187.515625 Z M 0.0390625 187.515625 " fill-opacity="1" fill-rule="nonzero"/></svg>