<?xml version="1.0" encoding="UTF-8"?>
<svg id="Layer_1" data-name="Layer 1" xmlns="http://www.w3.org/2000/svg" viewBox="0 0 4000 4000">
  <defs>
    <style>
      .cls-1 {
        fill: #006fa0;
      }

      .cls-2 {
        fill: #1c7aea;
      }

      .cls-3 {
        opacity: .7;
      }

      .cls-4 {
        fill: #fff;
      }

      .cls-5 {
        fill: #dbdbdb;
      }

      .cls-6 {
        fill: #d8d8d8;
      }

      .cls-7 {
        opacity: .5;
      }

      .cls-8 {
        opacity: .2;
      }

      .cls-9 {
        opacity: .3;
      }

      .cls-10 {
        fill: #e5e5e5;
      }

      .cls-11 {
        fill: #220f2d;
      }

      .cls-12 {
        fill: #ff4545;
      }

      .cls-13 {
        fill: #22a7f0;
      }

      .cls-14 {
        fill: #bcbcbc;
      }

      .cls-15 {
        fill: #e8e8e8;
      }

      .cls-16 {
        fill: #ff1d1d;
      }

      .cls-17 {
        fill: #371944;
      }

      .cls-18 {
        fill: #371a45;
      }
    </style>
  </defs>
  <path class="cls-4" d="M1605.56,2638.26c-115.07,136.99-244.92,528.56-319.38,613.22-45.08,51.26-140.39,42.81-217.22,4.9-45.72-22.55-93.86-59.64-124.02-88.06-34.89-32.88-27.52-88.26,8.51-121.94,27.25-25.48,62.32-30.09,84.31-25.47,24.29-386.33,206.72-675.52,268.89-789.24l298.9,406.59Z"/>
  <path class="cls-4" d="M1286.18,3251.49c-45.09,51.25-140.37,42.8-217.22,4.89-45.69-22.55-93.84-59.63-124-88.07-34.9-32.86-27.53-88.24,8.51-121.93,27.26-25.48,62.3-30.08,84.32-25.48,12.99-206.68,71.22-385.51,132.14-524.57,52.92-120.92,107.82-211.76,136.74-264.65l298.9,406.59c-30.19,35.95-61.44,89.42-92.39,150.28-87.02,171.07-172.1,400.5-227,462.94Z"/>
  <path class="cls-4" d="M1286.19,3251.49c-45.12,51.25-140.39,42.81-217.26,4.9-45.68-22.56-93.83-59.64-123.96-88.09-34.92-32.86-27.54-88.23,8.5-121.91,27.27-25.49,62.29-30.1,84.31-25.5,12.98-206.65,71.23-385.49,132.16-524.55,52.9-120.92,107.83-211.77,136.75-264.66l298.9,406.61c-30.2,35.95-61.43,89.41-92.41,150.27-7.41,14.59-14.82,29.61-22.17,44.9-79.14,164.07-154.59,360.89-204.81,418.03Z"/>
  <path class="cls-15" d="M1286.18,3251.49c-45.09,51.25-140.37,42.8-217.22,4.89-45.69-22.55-93.84-59.63-124-88.07-34.71-32.69-27.62-87.64,7.96-121.37-11.34,29.36-7.24,62.35,16.64,84.81,30.16,28.44,78.3,65.52,124,88.07,76.86,37.91,172.13,46.36,217.22-4.89,.9-1.01,1.81-2.11,2.73-3.21-9.76,16.66-18.9,30.18-27.32,39.76Z"/>
  <path class="cls-15" d="M1491,2833.46c-52.65-97.51-253.75-141.65-321.06-337.12,52.9-120.92,107.83-211.77,136.75-264.66l298.9,406.61c-30.2,35.95-61.43,89.41-92.41,150.27-7.41,14.59-14.82,29.61-22.17,44.9Z"/>
  <path class="cls-18" d="M1007.99,3242.4c-29.85-20.08-56.89-42.37-75.97-60.35-18.49-17.43-28.64-41.3-28.59-67.23,.06-30.22,13.6-60.18,37.16-82.19,25.08-23.45,55.27-31.8,79.71-32.1,26.58-346.15,177.14-613.18,250.18-742.74,7.4-13.12,14.02-24.86,19.64-35.15,4.99-9.13,16.45-12.49,25.58-7.5,9.19,4.98,12.49,16.45,7.5,25.58-5.7,10.42-12.39,22.3-19.88,35.58-73.01,129.5-224.94,398.96-246.74,745.81-.34,5.46-3.04,10.51-7.4,13.82-4.35,3.31-9.94,4.57-15.29,3.45-13.74-2.89-43.44-1.76-67.55,20.79-15.74,14.71-25.16,35.18-25.2,54.73-.02,10.9,2.87,26.64,16.75,39.72,26.66,25.12,73.92,62.42,119.43,84.88,67.35,33.23,155.86,43.74,194.72-.45,31.75-36.1,77.21-138.16,125.34-246.21,60.46-135.73,128.98-289.57,193.76-366.68,6.69-7.97,18.59-9.03,26.56-2.31,7.97,6.69,9.01,18.59,2.31,26.56-61.36,73.05-128.74,224.32-188.18,357.77-51.48,115.56-95.93,215.36-131.47,255.77-53.78,61.15-161.96,47.72-239.71,9.36-17.82-8.79-35.68-19.49-52.64-30.9Z"/>
  <path class="cls-4" d="M2027.46,1846.45c-200.82-401.35-159.98-904.06-159.98-904.06,.17-20.47,54.16-127.59,57.04-152.84,12.7-111.25-42.32-224.4-94.4-259.3-24.87-16.67-64.02-6.59-81.22,83.22-236.18-50.83-247.57,164.78-243.63,244.26-136.44,717.69,153.82,1178.95,153.82,1178.95"/>
  <path class="cls-4" d="M2027.45,1846.46l-223.69,115.52-144.66,74.71s-290.27-461.29-153.82-1178.98c-3.62-72.77,5.62-259.75,188.61-251.66,16.81,.75,35.09,3.14,54.99,7.42,17.22-89.81,56.38-99.88,81.25-83.24,52.06,34.9,107.09,148.04,94.41,259.31-2.89,25.27-56.89,132.36-57.05,152.85,0,0-40.83,502.71,159.97,904.07Z"/>
  <path class="cls-4" d="M2027.45,1846.46l-104.85,54.17-24.49,12.62-94.36,48.74-144.66,74.71s-290.27-461.29-153.82-1178.98c-3.62-72.77,5.62-259.75,188.61-251.66,16.81,.75,35.09,3.14,54.99,7.42,17.22-89.81,56.38-99.88,81.25-83.24,52.06,34.9,107.09,148.04,94.41,259.31-2.89,25.27-56.89,132.36-57.05,152.85,0,0-15.28,188.27,18.86,426.36,3.28,22.93,7.01,46.3,11.29,70.04,23.82,132.5,63.74,275.58,129.81,407.67Z"/>
  <path class="cls-15" d="M2027.45,1846.46l-104.85,54.17c-128.31-209.64-67.79-442.28-36.25-531.88,3.28,22.93,7.01,46.3,11.29,70.04,23.82,132.5,63.74,275.58,129.81,407.67Z"/>
  <path class="cls-15" d="M2444.18,2235.74c-53.7-5.37-120.21-21.55-196.87-59.02l51.73-145.21c63.35,54.98,109.17,125.42,145.14,204.23Z"/>
  <path class="cls-15" d="M2329.86,2210.71c-83.73-27.9-184.13-81.61-296.54-180.07-97.77-85.63-148.7-182.92-172.16-277.14l64.28-31.64s540.62,148.02,492,285.86c-18.55,52.51-49.97,124.22-87.58,202.98Z"/>
  <path class="cls-15" d="M2402.92,2185.24c-52.27,.63-107.08-7.19-161.91-23.58l42.78-131.12c46.94,38.15,86.42,93.25,119.13,154.7Z"/>
  <path class="cls-15" d="M2343.29,2182.36c-91.61-9.67-187.86-44.02-276.46-103.63-121.59-81.81-204.45-194.88-238.35-309.14l96.97-47.73s540.62,148.02,492,285.86c-16.28,46.14-42.54,107.05-74.16,174.64Z"/>
  <path class="cls-15" d="M1803.76,1961.98l-144.66,74.71s-290.27-461.29-153.82-1178.98c-3.62-72.77,5.62-259.75,188.61-251.66l81.3,220.56c-60.86,110.19-176.45,115.06-212.99,306.72-54.82,287.47,67.83,671.66,213.66,788.05,15.43,12.31,24.19,26.05,27.9,40.59Z"/>
  <path class="cls-18" d="M1648.57,2052.32c-2.11-1.42-3.97-3.3-5.42-5.6-3.02-4.81-74.71-120.06-130.32-325.45-51.06-188.61-97.04-491.62-26.48-864.87-2.2-49.79,1.28-166.56,74.53-228.78,42.53-36.12,100.86-48.24,173.58-36.11,11.22-44.44,29.5-72.2,54.48-82.63,16.91-7.06,35.75-4.99,51.69,5.7l.18,.12c60.17,40.48,115.66,161.33,102.46,276.98-1.61,14.09-12.44,40.19-30.09,81.49-10.39,24.32-26.09,61.08-26.85,69.68,0,.45-.01,.6-.05,1.05-.4,4.98-38,502.28,158.05,894.1,4.66,9.31,.89,20.63-8.42,25.29-9.31,4.66-20.64,.9-25.29-8.42-197.85-395.42-163.42-893.79-161.95-913.46,.47-13.01,9.59-35.63,29.85-83.05,11.05-25.88,26.2-61.33,27.3-70.96,12.07-105.67-41.95-211.75-86.05-241.43l-.12-.08c-5.48-3.67-10.92-4.42-16.17-2.23-5.61,2.34-24.78,14.55-36.04,73.34-.95,4.99-3.88,9.37-8.11,12.17-4.23,2.8-9.41,3.78-14.37,2.71-69.28-14.91-123-6.69-159.66,24.45-61.59,52.32-63.3,157.61-61.17,200.44,.07,1.49-.03,2.99-.31,4.45-69.66,366.44-24.86,663.71,24.99,848.55,54.06,200.45,125.56,315.7,126.27,316.84,5.53,8.81,2.88,20.45-5.93,25.99-6.51,4.09-14.57,3.71-20.56-.32Z"/>
  <path class="cls-18" d="M1471.76,1385.69c-2.49-1.67-4.98-3.39-7.47-5.15-6.95-4.92-8.6-14.54-3.68-21.5,4.92-6.95,14.57-8.58,21.5-3.68,83.58,59.14,173.82,70.73,268.22,34.45,71.66-27.54,119.11-73.73,119.58-74.19,6.07-5.97,15.82-5.91,21.81,.16,5.98,6.06,5.92,15.81-.14,21.8-2.08,2.05-51.78,50.63-129.13,80.62-70.62,27.39-177.77,43.48-290.69-32.5Z"/>
  <g>
    <path class="cls-4" d="M2238.41,1948.17l-71.19,78.41-36.28,39.93-625.44,688.69s49.38,39.98,119.9,88.27c13.8,9.44,28.4,19.22,43.6,29.06,113.21,73.44,259.52,151.31,350.92,135.21,136.64-24.11,460.17-411.46,518.58-619.87,26.8-95.52-100.01-245.77-197.07-343.53-10.83-10.95-21.32-21.23-31.17-30.67-41.5-39.92-71.83-65.48-71.83-65.48Z"/>
    <path class="cls-10" d="M2167.22,2026.58l-36.28,39.93-496.61,546.83-128.83,141.86s1.04,.83,3.01,2.4c.57,.43,1.24,.97,1.94,1.54,.57,.43,1.2,.93,1.84,1.43,.47,.4,.97,.77,1.44,1.17,.2,.13,.4,.33,.6,.47,.9,.7,1.9,1.5,2.97,2.3,.2,.2,.43,.37,.7,.57,.87,.67,1.77,1.37,2.74,2.14,1.3,1.03,2.67,2.07,4.11,3.17,1.04,.77,2.1,1.64,3.21,2.47,1.14,.87,2.27,1.74,3.44,2.64,1.47,1.13,3.04,2.3,4.61,3.54,3.24,2.44,6.65,5.04,10.29,7.74,3.17,2.44,6.55,4.94,10.09,7.54,4.08,3,8.32,6.17,12.76,9.41,16.4,11.98,35.34,25.5,56.16,39.75,4.04,2.77,8.18,5.57,12.36,8.41,2.91,1.97,5.91,3.97,8.92,5.97,7.25,4.84,14.73,9.78,22.32,14.68,113.25,73.48,259.52,151.31,350.88,135.17,112.53-19.83,351.8-285.94,465.37-495.72-120.77,165.13-277.48,319.93-362.3,334.87-41.93,7.39,6.58-121.89,49.59-171.32,110.92-127.48,165.03-342.24,126.72-540.9-1-5.16-78.65-53.9-132.04-108.04Z"/>
    <path class="cls-18" d="M1629.31,2869.12c-75.18-50.59-130.08-94.74-135.69-99.28l-15.5-12.56,758.55-835.22,13.89,11.7c.87,.73,87.62,74.07,167.94,165.08,111.1,125.89,157.59,224.84,138.18,294.1-60.91,217.37-389.98,608.04-533.49,633.36-105.77,18.66-275.12-77.29-393.86-157.18Zm-96.27-116.24c68.9,53.38,346.92,260.41,483.59,236.29,58.09-10.25,167-102.24,277.47-234.35,113.21-135.39,199.91-277.95,226.28-372.05,30.59-109.15-180.31-321.21-280.33-408.36l-707,778.46Z"/>
    <path class="cls-4" d="M2351.94,2761.22c-7.66-34.82-148.49-146.11-148.49-146.11-16.59-11.01-38.5-9.44-53.32,3.86-54.24,48.66-173.57,167.42-152.39,253.74,17.58,71.67,93.86,106.68,154.9,101.17,47.63-4.29,91.84-47.77,131.3-94.96,42.76-51.13,73.98-90.53,68-117.71Z"/>
    <path class="cls-4" d="M2283.94,2878.95c-20.32,24.35-41.97,47.66-64.69,65.12-21.28,16.46-43.55,27.74-66.61,29.81-61.04,5.5-137.33-29.49-154.89-101.17-16.61-67.7,53.27-155.45,110.31-213.56,.06-.04,.08-.09,.08-.09,15.64-15.93,30.35-29.64,41.99-40.1,14.81-13.29,36.75-14.88,53.32-3.84,0,0,140.85,111.27,148.51,146.13,5.94,27.13-25.26,66.57-68.02,117.7Z"/>
    <path class="cls-10" d="M2219.25,2944.07c-21.28,16.46-43.55,27.74-66.61,29.81-61.04,5.5-137.33-29.49-154.89-101.17-16.61-67.7,53.27-155.45,110.31-213.56-1.76,2.86-46.8,74.42-21.45,86.12,19.92,9.24,56.64-17.07,58.83-18.6-2.98,4.62-92.97,145.22-16.61,193.94,34.32,21.93,65.04,26.6,90.42,23.46Z"/>
    <path class="cls-18" d="M2040.88,2963.02c-29.2-19.65-52.31-48.54-61.45-85.81-22.82-93.03,89.27-210.51,158.12-272.26,21.2-19.01,52.58-21.29,76.33-5.53l.65,.43,.61,.49c43.93,34.71,146.99,119.49,155.21,156.85h0c7.77,35.31-22,74.12-71.95,133.85-39.65,47.41-87.77,96.57-144.07,101.64-37.8,3.41-79.69-6.93-113.45-29.64Zm151.58-332.56c-9.36-5.85-21.5-4.84-29.75,2.55-104.89,94.08-159.72,182.01-146.67,235.22,14.88,60.66,80.28,91.81,134.9,86.89,42.86-3.86,85.86-49.21,118.53-88.28,28.86-34.5,68.37-81.75,64.06-101.54-4.57-17.52-76.48-83.72-141.08-134.85Zm141.08,134.86l.04,.03-.04-.03Zm0-.04h0s0,0,0,0Z"/>
    <path class="cls-18" d="M2084.68,2977.34c-27.87-15.33-38.69-49.37-37.5-78.93,4.26-70.22,50.36-126.33,95.36-175.74,9.68-9.74,18.94-18.93,30.63-26.68,1.7-1.1,3.98-.61,5.08,1.1,1.14,1.76,.55,4.07-1.2,5.16-9.93,7.45-19.11,17.44-27.44,26.91-42.42,51.67-103.14,134.67-74.64,203.43,4.68,10.12,12.42,18.95,20.73,22.75,6.18,2.83,8.9,10.13,6.07,16.31-2.93,6.47-10.87,9.1-17.08,5.68h0Z"/>
    <path class="cls-18" d="M2338.98,2195.2c38.13,24.32,75.13,49.83,111.18,77.14,36.41,27.92,71.73,56.34,102.18,91.48,11.75,14.6-9.68,32.15-21.65,17.55-26.71-34.21-60.35-64.23-93.7-92.53-34.07-28.61-69.67-55.89-105.93-81.65-7.49-5.3-.03-16.85,7.92-11.98h0Z"/>
  </g>
  <path class="cls-4" d="M2039.66,2742.35c-9.29,8.26-20.46,18.39-33.59,29.27-61.44,50.77-166.32,118.09-326.46,91.86-46.55-7.63-91.12-76.82-136.69-94.33-212.84-100.13-302.4-316.01-302.4-316.01-11.33-93.78,32.1-196.91,102.41-294.38,101.77-141,259.84-270.16,389.96-342.11l192.55-94.81s540.61,148.08,492,285.88c-64.25,182.08-283.41,594.38-377.78,734.64Z"/>
  <path class="cls-15" d="M2006.07,2771.62c-61.44,50.77-166.32,118.09-326.46,91.86-46.55-7.63-91.12-76.82-136.69-94.33-212.84-100.13-302.4-316.01-302.4-316.01-11.33-93.78,32.1-196.91,102.41-294.38,88.44,122.4,250.3,299.2,529.61,471.81,74.73,46.21,115.87,93.99,133.53,141.05Z"/>
  <path class="cls-15" d="M2329.86,2210.71c-83.73-27.9-184.13-81.61-296.54-180.07-97.77-85.63-148.7-182.92-172.16-277.14l64.28-31.64s540.62,148.02,492,285.86c-18.55,52.51-49.97,124.22-87.58,202.98Z"/>
  <path class="cls-18" d="M1565.43,2745.6c23.23,11.01,41.81,29.56,57.25,49.01,13.78,16.86,26.58,36.6,43.54,48.5,7.93,5.34,14.5,6.77,27.03,8,27.59,4.15,56.12,4.81,83.99,3.21,72.92-5.16,142.81-33.84,200.69-78.29,18.09-13.63,35.13-28.54,52.47-44.09l-2.29,2.62c64.48-98.78,121.46-203.64,177.01-307.95,71.59-137.99,142.95-276.45,197.63-421.87,6.76-17.23,.99-33.35-10.4-49.04-75.4-97.31-337.18-178.35-458.28-223.41,0,0-5.23-1.88-5.23-1.88l-2.62-.93-1.3-.46-.65-.23c.16,.02-.82-.21,.28,.02,1.15,.21,2.52,0,3.52-.51-8.53,3.37-13.65-9.39-5.21-12.92,1.53-.55,3.51-.6,5.15-.11,0,0,.69,.14,.69,.14l1.38,.29c27.85,6,56.88,13.39,84.24,21.15,99.39,28.69,417.16,133.15,420.98,250.47,1.17,15.45-7.26,34.32-12.6,48.49-77.82,194.12-177.4,378.26-278.67,560.74-29.86,52.29-60.12,104.3-93.71,154.97-52.48,48.83-113.15,92.06-182.45,113.68-4.72,1.14-21.28,6.13-26.12,7.32-6.98,1.61-19.8,3.82-26.6,5.32-17.3,2.93-36.32,4.48-53.9,4.96-24,1.02-48.03-.86-71.76-4.08-8.68-.75-20.45-2.56-29.36-7.12-45.35-23.66-60.4-79.91-106.9-100.98-16.17-8.69-4.56-32.52,12.23-25.03h0Z"/>
  <path class="cls-18" d="M1737.45,1824.88c-57.91,37.96-113.53,79.98-166.18,124.83-105.35,87.45-204.2,187.7-267.4,310.33-32.12,60.38-47.66,124.23-54.02,192.25-.83,9.91-15.62,11.95-18.68,1.96-11.43-35.53-9.6-74.27-1.19-109.97,29.87-124.26,113.05-226.67,199.33-316.32,61.35-64.33,129.96-121.74,205.67-168.42,30.17-18.73,61.13-36.21,93.35-51.15,10.36-4.67,18.9,10,9.12,16.5h0Z"/>
  <path class="cls-15" d="M2759.46,3064.72s-40.6,104.76-96.64,90.28c-56.55-14.62-40.95-81.52-40.95-81.52l-103.36-64.2,32.22-88.36,188.27,68.93"/>
  <path class="cls-18" d="M2633.21,3162.34c-28.81-19.38-34.19-54.2-31.87-79.42l-92.77-57.62c-7.5-4.7-10.82-14.09-7.77-22.47l32.22-88.36c1.72-4.7,5.23-8.53,9.76-10.64,4.54-2.11,9.73-2.33,14.43-.6l188.27,68.93c9.77,3.55,14.8,14.4,11.22,24.18-3.58,9.78-14.4,14.8-24.18,11.22l-170.55-62.44-20.51,56.24,90.34,56.11c6.86,4.3,10.25,12.43,8.41,20.29-1.11,4.95-9.93,49.36,27.31,58.99,29.94,7.74,63.02-49.79,74.35-78.86,3.78-9.69,14.7-14.5,24.4-10.73,9.7,3.76,14.51,14.67,10.75,24.37-4.78,12.32-48.69,119.87-118.93,101.72-9.78-2.53-18.01-6.28-24.89-10.91Z"/>
  <path class="cls-4" d="M2299.03,2031.51c210.02,182.27,227.44,534.4,330.76,798.74,13.59,11.67,49.75,21.9,105.99,74.94,67.36,63.53,118.35,183.36,64.53,212.59-42.1,22.87-90.86-58.43-120.55-90.02-24.53-17.81-147.1-10.13-159.42-19.03-68.58-49.51-107.81-21.82-171.46-105.56-135.54-178.32-201.8-445.12-201.8-445.12l151.94-426.55Z"/>
  <path class="cls-4" d="M2800.3,3117.77c-.28,.16-.6,.3-.91,.44-41.86,21.31-90.14-59.07-119.64-90.45-24.52-17.81-147.08-10.14-159.4-19.04-68.59-49.48-107.81-21.8-171.45-105.54-135.57-178.33-201.81-445.12-201.81-445.12l1.21-3.43,150.73-423.11c210,182.27,227.45,534.41,330.75,798.73,13.59,11.64,49.78,21.88,106.02,74.93,67.33,63.53,118.33,183.38,64.5,212.59Z"/>
  <path class="cls-15" d="M2444.18,2235.74c-53.7-5.37-120.21-21.55-196.87-59.02l51.73-145.21c63.35,54.98,109.17,125.42,145.14,204.23Z"/>
  <path class="cls-15" d="M2799.39,3118.21c-41.86,21.31-90.14-59.07-119.64-90.45-24.52-17.81-147.08-10.14-159.4-19.04-68.59-49.48-107.81-21.8-171.45-105.54-135.57-178.33-201.81-445.12-201.81-445.12l1.21-3.43c75.8,184.91,260.95,446.91,266.02,452.65,33.14,37.24,267.78,65.27,277.99,73.15,8.06,6.26,58.32,102.25,107.08,137.78Z"/>
  <path class="cls-18" d="M2311.39,2017.27c170.88,151.78,213.52,389.43,271.36,599.21,18.77,70.27,38.54,140.04,64.6,206.91l-5.27-7.44c1.89,1.53,6.43,4.21,11.09,6.7,57.22,29.5,109.45,72.06,144.88,126.02,26.16,41.37,50.65,88.45,44.47,139.69-3.17,24.39-21.65,48.25-46.88,53.23-38.27,6.85-66.81-24.08-88.83-48.41-14.52-16.41-28.24-35.53-42.38-51,0,0,2.97,2.62,2.97,2.62-11.54-4.99-27.82-5.72-41.26-7.08-33.63-2.91-68.49-1.32-102.46-6.17-5.52-.77-12.33-3.21-17.46-7.25-27.9-20.88-56.8-26.9-90.42-40.31-18.35-7.62-36.15-19.19-50.58-32.68-88.82-90.24-166.13-264.46-202.96-385.21-9.82-34.34-19.33-70.27-24.31-105.76-1.26-10.85,14.2-15.3,18.3-4.54,56.77,147.63,108.17,300.73,203.36,428.43,10.26,14.07,20.83,26.61,32.71,37.36,25.77,24.48,55.52,29.79,89.47,42.64,17.53,6.85,34.57,16.08,49.96,27.04l.75,.52c-.15-.14-1.09-.78-1.65-1.04-1.66-.84-1.45-.63-1.3-.63,32.99,4.27,66.18,2.43,99.85,5.55,22.1,2.52,42.09,2.22,62.75,15.06,19.97,16.26,75.33,107.4,101.1,86.71,3.96-3.11,6.72-8.07,8.01-15.8,2.58-17.36-2.75-37.69-9-55-27.45-74.82-88.24-133.61-157.57-170.73-5.58-3.06-13.99-8.34-20.62-14.13-27.84-70.62-48.43-143.31-67.74-215.58-37.62-139.6-68.94-282.87-133.5-412.16-31.99-63.55-73.14-122.38-126.14-168.29-17.97-16.06,4.6-44.56,24.71-28.47h0Z"/>
  <path class="cls-18" d="M2228.28,2720.76c-6.29-4.23-8.65-12.55-5.23-19.56,79.4-162.62,311.4-170.56,321.24-170.81,8.51-.22,15.59,6.49,15.82,15.01,.23,8.51-6.49,15.6-15,15.83-2.23,.06-223.19,7.8-294.34,153.51-3.74,7.65-12.97,10.83-20.63,7.09-.65-.32-1.27-.68-1.86-1.07Z"/>
  <path class="cls-4" d="M2527.91,2940.94c17.35,51.19,50.61,85.97,47.17,124.39-2.29,25.6-25.22,43.98-45.5,41.97-69.48-6.9-151.44-138.74-170.58-165.75-19.14-27.01-75.72-137.04-110.2-206.28l279.11,205.67Z"/>
  <path class="cls-4" d="M2554.9,3099.93c-7.74,5.44-16.75,8.23-25.33,7.36-69.46-6.9-151.43-138.74-170.56-165.73-19.14-27.04-75.74-137.07-110.21-206.32l97.26,71.67,181.86,134.02c17.35,51.2,50.61,85.98,47.14,124.4-1.32,14.8-9.53,27.2-20.16,34.59Z"/>
  <path class="cls-15" d="M2554.9,3099.93c-7.74,5.44-16.75,8.23-25.33,7.36-69.46-6.9-151.43-138.74-170.56-165.73-19.14-27.04-75.74-137.07-110.21-206.32l97.26,71.67q0,.05,.04,.07c28.13,39.48,83.9,253.69,208.8,292.94Z"/>
  <path class="cls-18" d="M2536.84,2937.91c12.86,25.48,28.63,47.1,42.55,72.8,6.86,13.35,13.58,28.95,14.35,47.39,3.21,40.92-37.6,79.05-78.76,66.54-46.86-12.96-79.99-50.01-109.61-83.99-27.76-33.78-52.96-69.95-75.45-106.78-35.22-62.28-66.79-126.12-98-190.2-10.02-22.32,21.76-38.48,33.75-16.8,39.62,74.02,74.72,151.44,122.43,220.4,30.85,43.96,63.71,90.66,105.82,122.82,13.84,9.42,26.71,18.54,42.32,17.5,12.34-3.17,20.88-15.55,20.64-28.74,.2-10.08-3.15-21.72-8.1-33.97-9.86-24.55-24.2-51.48-29.79-80.91-2.05-10.75,13.03-15.74,17.85-6.05h0Z"/>
  <path class="cls-4" d="M2111.54,2617.64c-91.96,144.74-206.67,387.7-213.85,432.85-12.58,164.86,12.67,294.91-10.24,369.5-21.56,70.18-119.14,193.97-208.31,205.26-81.46,10.31-175.44-55.03-188.68-117.91-14.99-71.18,50.25-136.88,85.44-173.74-57.47-107.41-87.86-223.6-84.8-308.15,2.49-68.85,28.18-169.16,53.64-244.49,2.51-7.44-80.45-37.84-159.8-124.08"/>
  <path class="cls-4" d="M1679.15,3625.26c-81.45,10.31-175.45-55.07-188.67-117.91-15-71.18,50.22-136.91,85.42-173.75-57.47-107.42-87.82-223.6-84.8-308.14,1.9-52.44,17.27-123.14,35.7-187.15,5.78-20.04,11.85-39.4,17.93-57.35,2.53-7.42-80.44-37.86-159.8-124.07l464.85-25.08,22.77-1.23,239.01-12.91c-19.28,30.34-39.58,65.01-59.68,101.28-3.84,6.97-7.7,13.97-11.52,21.05-.22,.47-.47,.91-.72,1.36-4.1,7.5-8.14,15.05-12.14,22.61-11.93,22.37-23.57,44.95-34.68,67.07-.16,.31-.35,.66-.48,1-1.9,3.73-3.74,7.46-5.62,11.16-1.84,3.72-3.67,7.42-5.49,11.11-3.62,7.35-7.2,14.64-10.66,21.81-1.17,2.38-2.29,4.74-3.45,7.09-4.02,8.36-7.9,16.53-11.65,24.55-.82,1.72-1.59,3.42-2.39,5.1-.53,1.06-1,2.12-1.47,3.17-2.68,5.67-5.26,11.26-7.75,16.72-1.48,3.26-2.94,6.48-4.36,9.64-1.73,3.84-3.43,7.62-5.08,11.34-.88,1.87-1.68,3.69-2.45,5.54-.49,1.09-.99,2.17-1.43,3.25-.97,2.14-1.88,4.27-2.79,6.4-.13,.2-.2,.43-.32,.68-1.25,2.85-2.45,5.68-3.66,8.46-.87,2.06-1.74,4.13-2.56,6.13-.83,1.94-1.65,3.86-2.43,5.79-.02,.03-.07,.1-.08,.18-.54,1.29-1.06,2.55-1.59,3.84-1.75,4.21-3.35,8.29-4.88,12.18-1.23,3.1-2.4,6.09-3.48,8.96-.72,1.84-1.38,3.66-2.02,5.4-.66,1.82-1.33,3.6-1.93,5.32-3.77,10.8-6.24,19.11-7.11,24.63-12.56,164.85,12.7,294.91-10.25,369.49-21.55,70.19-119.11,193.97-208.29,205.27Z"/>
  <path class="cls-15" d="M1679.12,3625.26c-81.44,10.32-175.4-55.05-188.67-117.92-7.06-33.41,3.62-65.62,20.53-94.2-5.94,18.53-8.01,37.95-3.83,57.85,13.27,62.87,107.25,128.21,188.72,117.91,72.85-9.22,151.4-93.66,189.42-162.47-25.26,71.08-119.67,187.88-206.17,198.83Z"/>
  <path class="cls-15" d="M1567.6,3156.08c8.8-32.82,99.48-29.38,125.26,13.75,21.93,36.68,25.5,159.36-21.28,155.85-61.12-4.59-112.78-136.77-103.98-169.59Z"/>
  <path class="cls-15" d="M1104.49,2939.2c30.33-30.43,123.92,18.21,129.17,68.34,4.45,42.5-40.47,95.14-83.14,75.63-102.43-46.83-60.05-129.91-46.04-143.96Z"/>
  <path class="cls-15" d="M1903.39,3029.93c-50.82-66.35-176.87-220.29-376.55-191.61l-.03-.02c5.78-20.04,11.85-39.4,17.93-57.35,2.53-7.42-80.44-37.86-159.8-124.07l464.85-25.08,22.77-1.23c2.6,1.33,119.76,64.6,179.33,88.37l.03,.02c-3.84,6.97-7.7,13.97-11.55,21.03-.22,.47-.47,.91-.72,1.36-4.07,7.52-8.11,15.07-12.14,22.61-11.9,22.4-23.54,44.97-34.68,67.07-.16,.31-.35,.66-.48,1-1.9,3.73-3.74,7.46-5.62,11.16-1.84,3.72-3.67,7.42-5.49,11.11-3.62,7.35-7.2,14.64-10.66,21.81-1.17,2.38-2.29,4.74-3.45,7.09-4.02,8.36-7.9,16.53-11.65,24.55-.82,1.72-1.59,3.42-2.39,5.1-.53,1.06-1,2.12-1.47,3.17-2.68,5.67-5.26,11.26-7.75,16.72-1.48,3.26-2.94,6.48-4.36,9.64-1.73,3.84-3.43,7.62-5.08,11.34-.88,1.87-1.68,3.69-2.45,5.54-.49,1.09-.99,2.17-1.43,3.25-.97,2.14-1.88,4.27-2.79,6.4-.13,.2-.2,.43-.32,.68-1.25,2.85-2.45,5.68-3.66,8.46-.87,2.06-1.74,4.13-2.56,6.13-.83,1.94-1.65,3.86-2.43,5.79-.02,.03-.07,.1-.08,.18-.54,1.29-1.06,2.55-1.59,3.84-1.75,4.21-3.35,8.29-4.88,12.18-1.23,3.1-2.4,6.09-3.48,8.96-.72,1.84-1.38,3.66-2.02,5.4-.66,1.82-1.33,3.6-1.93,5.32-.52,1.4-.96,2.76-1.41,4.06Z"/>
  <path class="cls-18" d="M2127.46,2627.75c-63.51,101.63-118.61,209.15-168.79,317.99-15.25,35.16-32.85,70.76-42.36,107.72-2.97,37.34-4.08,92.42-3.17,136.08,.67,46.15,3.27,92.4,3.19,139.84-.33,35.85-1.81,75.12-15.68,109.78-23.71,56.76-61.93,105.68-107.27,146.74-37.07,32.96-85.87,62.05-137.7,59.18-73.58-3.38-156.92-53.17-181.31-124.9-8.19-27.09-5.49-55.58,3.25-80.2,16.88-47.64,51.25-84.55,84.65-119.38,0,0-2.99,21.91-2.99,21.91-46.3-88.15-80.24-184.43-86.66-284.72-1.82-33.63,1.34-67.88,6.87-100.88,9.98-62.02,25.98-122.36,47.15-181.31,0,0,.13-.36,.13-.36l.06-.18s.16-.54-.28,.91c-.59,1.87-.69,4.48-.58,5.87,.1,3.41,2.08,8.06,4.3,10,.55,.41-.85-.79-2.09-1.63-26.89-17.15-55.82-35.05-80.54-55.86-25.75-21.13-49.44-44.82-69.66-71.07-3.19-4.14-2.42-10.08,1.72-13.27,3.69-2.85,8.83-2.54,12.15,.51,41.05,37.57,86.58,69.28,135.13,96.05,15.21,9.58,44.39,18.72,34.73,43.25-17.35,56.95-33.78,114.91-44.41,173.46-12.41,61.73-8.09,124.02,7.15,185.05,15.01,61.17,38.35,120.67,68.1,176.49,3.91,7.34,2.43,16.13-3.03,21.83-16.15,16.81-31.52,33.09-44.91,50.58-13.29,17.42-24.75,35.89-31.38,55.11-10.21,27.9-7.94,58.37,10.23,82.52,30.24,41.78,83.02,70.07,133.56,72.56,80.24,3,157.66-88.75,194.55-152.88,23.29-38.25,27.27-80.78,27.04-125.34-.68-92.86-7.67-188.1,.46-281.63,4.52-22.05,12.8-40.92,20.86-61.3,23.43-56.4,49.77-111.33,77.1-165.8,36.71-72.55,75.13-143.94,118.59-212.9,13.56-20.33,44.68-1.77,31.82,20.22h0Z"/>
  <g>
    <path class="cls-12" d="M1894.43,935.18c-48.08,140.79,118.84,224.55,133.6,204.99,14.76-19.55-74.63-90.39-6.07-187.46,53.47-75.7-90.42-126.21-127.53-17.54Z"/>
    <path class="cls-16" d="M2021.97,952.73c-68.56,97.06,20.82,167.9,6.06,187.45-4.66,6.17-24.43,2.05-47.82-10.87-42.72-23.59-97.53-76.6-94.3-150.18,.6-13.93,3.28-28.61,8.53-43.95,37.11-108.67,181-58.17,127.53,17.55Z"/>
    <g class="cls-8">
      <path class="cls-18" d="M2021.97,952.73c-68.56,97.06,20.82,167.9,6.06,187.45-4.66,6.17-24.43,2.05-47.82-10.87,9.06-2.97,17.23-8.73,15.49-19.85-3.65-23.45-18.37-57.25-26.69-98.24-6.46-31.75-49.75-25.34-83.11-32.09,.6-13.93,3.28-28.61,8.53-43.95,37.11-108.67,181-58.17,127.53,17.55Z"/>
    </g>
    <path class="cls-18" d="M1958.69,1131.9c-50.5-33.98-109.87-104.83-77-201.07,14.16-41.47,44.38-67.45,82.91-71.29,31.53-3.14,61.78,10.31,75.27,33.46,11.71,20.1,9.19,44.69-6.91,67.49-42.37,59.99-18.86,106.71-1.69,140.82,9.6,19.08,17.19,34.16,7.51,46.98-12.85,17.01-44.55,3.74-62.3-5.68-5.68-3.01-11.67-6.59-17.78-10.71Zm46.81-236.82c-10.03-6.75-23.99-10.16-38.23-8.74-27.58,2.75-49.49,22.14-60.1,53.2h0c-21.17,61.98,4.02,108.79,28.88,137.13,28.86,32.92,63.45,49.1,78.55,52.32-1.85-4.56-4.91-10.66-7.39-15.57-16.76-33.29-47.95-95.27,3.75-168.46,7-9.91,13.66-24.62,5.63-38.39-2.59-4.45-6.42-8.33-11.1-11.48Z"/>
    <g class="cls-7">
      <path class="cls-4" d="M1938.77,1072.99s-32.14-19.34-34.08-62.87c0,0,23.81,27.98,34.08,62.87Z"/>
    </g>
    <path class="cls-12" d="M2057.31,719.46c122.24-84.79,248.5,52.81,233.74,72.37-14.76,19.55-107.37-47.03-181.95,45.49-58.17,72.15-146.14-52.41-51.79-117.86Z"/>
    <path class="cls-16" d="M2109.11,837.31c74.58-92.52,167.18-25.94,181.94-45.5,4.66-6.17-4.71-24.06-23.55-43.02-34.39-34.63-100.37-72.83-170.26-49.58-13.24,4.4-26.62,10.99-39.94,20.24-94.36,65.44-6.39,190.01,51.79,117.85Z"/>
    <g class="cls-8">
      <path class="cls-18" d="M2109.11,837.31c74.58-92.52,167.18-25.94,181.94-45.5,4.66-6.17-4.71-24.06-23.55-43.02-.38,9.53-3.68,18.96-14.84,20.34-23.56,2.91-60.09-1.99-101.8,1.23-32.31,2.48-37.99-40.91-53.61-71.14-13.24,4.4-26.62,10.99-39.94,20.24-94.36,65.44-6.39,190.01,51.79,117.85Z"/>
    </g>
    <path class="cls-18" d="M2037.81,862.36c-17.01-11.45-29.85-31.47-34.03-54.71-6.86-38.11,9.85-74.29,45.86-99.27h0c93.7-64.99,188.44-9.71,229.65,33.2,13.92,14.49,35.35,41.35,22.51,58.35-9.68,12.82-26.26,9.66-47.24,5.65-37.51-7.17-88.88-16.99-134.98,40.18-17.51,21.72-40.48,30.88-63.02,25.12-6.62-1.69-12.93-4.6-18.76-8.52Zm27.18-131.84c-26.97,18.71-39.62,45.08-34.71,72.37,3.72,20.67,17.28,37.9,32.96,41.91,15.45,3.95,27.77-6.48,35.38-15.93,56.24-69.76,124.39-56.73,161-49.73,5.41,1.03,12.11,2.31,17,2.84-7.23-13.64-32.28-42.47-71.83-61.22-34.07-16.15-85.98-27.56-139.79,9.77h0Z"/>
    <g class="cls-7">
      <path class="cls-4" d="M2201.99,724.37s-27.4-25.61-69.8-15.56c0,0,33.43,15.24,69.8,15.56Z"/>
    </g>
    <path class="cls-16" d="M1950.52,971.15l36.67,17.09c16.59,7.73,36.08,5.73,50.75-5.21h0c43.69-32.58,77.64-76.49,98.16-126.98h0c6.89-16.96,3.92-36.32-7.75-50.43l-25.78-31.18-152.05,196.71Z"/>
    <g class="cls-9">
      <path class="cls-4" d="M2100.43,919.99c-1.81,2.47-3.66,4.91-5.55,7.32,11.99-17.52,22.12-36.34,30.18-56.17,3.44-8.48,4.43-17.56,3.09-26.29-1.35-8.72-5-17.09-10.84-24.15l-25.78-31.17,5.62-7.24,5.43-7.85,25.77,31.18c5.83,7.06,9.5,15.42,10.84,24.15,1.35,8.72,.36,17.8-3.08,26.28-9.27,22.8-21.27,44.25-35.68,63.94Z"/>
    </g>
    <g class="cls-8">
      <path class="cls-18" d="M2100.43,919.99c-17.49,23.89-38.52,45.16-62.48,63.03-14.67,10.94-34.17,12.93-50.75,5.22l-36.66-17.09,79.56-102.95c-1.46,9.53,.04,24.33,17.69,37.26,28.77,21.06,61.05,2.32,61.05,2.32,.03-.02,.06-.06,.1-.08-2.72,4.17-5.57,8.27-8.51,12.29Z"/>
    </g>
    <path class="cls-4" d="M1328.85,358.77c.03,35.98,5.99,108.53,44.65,196.3,31.79,72.13,85.69,154.57,176.64,235.43,58.99,52.44,116.03,89.7,167.68,116.14,134.72,68.99,232.71,64.49,232.71,64.49,1.9-1.18,3.8-2.39,5.66-3.62,35.92-23.34,67.06-52.77,92.24-86.69,13.79-18.57,25.76-38.47,35.76-59.47,.28-.58,.54-1.16,.81-1.73,6.86-14.59,12.72-29.66,17.58-45.17,0,0-7.14-33.59-33.83-84.46-4.36-8.34-9.26-17.1-14.73-26.28-6.49-10.88-13.8-22.33-22.01-34.18-.77-1.13-1.56-2.24-2.35-3.38-10.59-15.11-22.63-30.88-36.33-47.06-3.78-4.44-7.69-8.96-11.73-13.47-38.61-43.33-89.05-89.18-154.72-133.11-4.1-2.72-8.19-5.43-12.29-8.02-17.36-11.21-34.49-21.34-51.36-30.49-23.38-12.72-46.22-23.56-68.42-32.75-34.93-14.49-68.22-24.94-99.5-32.29-6.18-1.45-12.27-2.78-18.3-3.99-105.81-21.4-186.2-7.6-223.72,2.13-14.43,3.73-24.46,16.78-24.44,31.69Z"/>
    <path class="cls-4" d="M2048.43,880.82c-25.19,33.93-56.32,63.35-92.24,86.69-1.85,1.23-3.76,2.44-5.65,3.62,0,0-98,4.51-232.72-64.48-51.65-26.45-108.7-63.71-167.68-116.14-90.94-80.87-144.85-163.31-176.63-235.43-38.66-87.76-44.62-160.31-44.65-196.29-.02-14.92,10.02-27.95,24.44-31.69,37.52-9.73,117.91-23.54,223.72-2.14,6.04,1.21,12.13,2.53,18.31,4,31.28,7.35,64.58,17.8,99.5,32.29,10.8,4.47,21.76,9.34,32.88,14.62,11.69,5.57,23.55,11.6,35.54,18.12,16.87,9.16,34,19.28,51.35,30.5,4.1,2.59,8.2,5.29,12.29,8.02,65.68,43.92,116.11,89.77,154.73,133.1,3.89,4.38,7.68,8.72,11.33,13.03,.13,.14,.26,.3,.38,.44,13.71,16.19,25.76,31.96,36.34,47.06,.78,1.14,1.57,2.25,2.35,3.38,8.2,11.86,15.53,23.3,22.01,34.18,5.48,9.19,10.37,17.96,14.73,26.29,26.7,50.88,33.83,84.46,33.83,84.46-4.85,15.5-10.72,30.58-17.57,45.17-.27,.58-.53,1.16-.82,1.73-10,21-21.98,40.9-35.76,59.47Z"/>
    <path class="cls-5" d="M1373.51,555.07c31.79,72.12,85.69,154.57,176.64,235.43,58.97,52.44,116.02,89.7,167.67,116.13,134.72,69.01,232.71,64.5,232.71,64.5,1.89-1.18,3.81-2.39,5.66-3.62,35.92-23.33,67.05-52.76,92.23-86.68,13.8-18.59,25.76-38.48,35.77-59.47,.29-.6,.54-1.17,.8-1.73,6.87-14.6,12.72-29.68,17.58-45.18,0,0-7.14-33.58-33.82-84.46-2.18-4.16-4.5-8.44-6.95-12.82,.61,1.51,33.12,83.42-15.54,122.59-23.23,18.71-61.54,26.48-81.78,18.96-10.74,15.36-30.62,65.07-100.6,72.81-137.4,15.19-375.71-179.65-467.01-348.93-15.49-28.72-30.83-43.06-45.65-46.95,5.83,18.78,13.14,38.67,22.29,59.42Z"/>
    <path class="cls-13" d="M1629.8,338.14c-37.24,31.51-71.64,66.03-102.88,103.16-46.64,55.41-86.23,116.61-117.73,182.23-71-117.6-80.3-219.75-80.36-264.75-.01-14.91,10.06-27.95,24.5-31.7,1.09-.29,2.23-.58,3.41-.87,45.28-11.22,144.7-26.18,273.07,11.92Z"/>
    <path class="cls-16" d="M1409.19,623.53c5.27-10.96,10.74-21.79,16.45-32.5,28.46-53.4,62.43-103.57,101.28-149.73,31.24-37.14,65.63-71.66,102.87-103.16-128.37-38.11-227.77-23.14-273.05-11.93-1.17,.29-2.32,.58-3.41,.86-14.44,3.77-24.51,16.79-24.5,31.71,.02,8.98,.4,20.23,1.56,33.42,4.67,52.96,21.97,137.19,78.82,231.32Z"/>
    <g class="cls-8">
      <path class="cls-18" d="M1409.19,623.53c5.27-10.96,10.74-21.79,16.45-32.5,0,0-67.73-96.62-95.27-198.82,4.67,52.96,21.97,137.19,78.82,231.32Z"/>
    </g>
    <path class="cls-18" d="M1401.67,634.7c-1.6-1.08-2.98-2.5-4.01-4.21-70.73-117.15-81.91-219.18-82.28-269.57-.17-22.41,14.9-41.9,36.63-47.39,48.87-12.35,150.43-27.25,281.62,11.69,4.74,1.42,8.33,5.3,9.35,10.14,1.02,4.84-.7,9.85-4.48,13.04-91.98,77.83-165.05,172.35-217.18,280.95-2.14,4.46-6.55,7.39-11.49,7.62-2.95,.14-5.8-.69-8.16-2.28Zm200.37-290.25c-113.34-28.71-200.24-15.73-243.43-4.82-9.67,2.44-16.37,11.11-16.3,21.08,.33,44.54,9.67,131.9,66,234.34,49-95.1,114.02-179.22,193.73-250.61Z"/>
    <path class="cls-18" d="M1634.49,873.15c-30.17-20.3-61.41-44.26-93.27-72.59-58.63-52.13-106.94-109.34-143.57-170.05-2.46-4.07-2.55-9.07-.42-13.17,53.77-111.89,129.09-209.28,223.88-289.49,3.47-2.93,8.18-3.92,12.53-2.63,67.97,20.16,135.51,52.5,200.73,96.1,.79,.53,1.57,1.05,2.35,1.58,236.49,159.12,277.41,341.06,279.04,348.75,.48,2.26,.37,4.61-.32,6.81-13.18,42.15-33.56,81.24-60.58,116.19-27.01,34.95-59.71,64.53-97.19,87.92-1.96,1.22-4.21,1.92-6.51,2.03-6.71,.31-143.74,4.9-316.67-111.45Zm-209.99-250.34c34.76,56.08,80.02,109.08,134.61,157.62,190.36,169.25,361.56,177.12,387.47,177.29,33.43-21.37,62.69-48.12,86.98-79.54,24.29-31.43,42.8-66.46,55.05-104.19-6.67-24.96-57.53-188.78-269.21-330.28-60.73-40.6-123.42-71.05-186.46-90.56-87.53,75.33-157.61,165.99-208.44,269.66Zm526.04,348.33l.04,.03-.04-.03Z"/>
    <path class="cls-18" d="M1858.74,972.23c-1.34-.9-2.54-2.07-3.53-3.48-4.25-6.1-2.75-14.49,3.35-18.74,44.81-31.23,84.48-69,117.93-112.27,34.9-45.16,62.25-95.28,81.31-148.98,2.49-7.01,10.19-10.67,17.19-8.19,7.01,2.5,10.67,10.19,8.19,17.19-20.01,56.39-48.74,109.02-85.38,156.44-35.12,45.44-76.79,85.1-123.84,117.9-4.69,3.27-10.74,3.14-15.22,.13Z"/>
    <path class="cls-18" d="M1942.99,982.31c-5.4-3.64-7.51-10.76-4.67-16.85,3.14-6.74,11.15-9.66,17.89-6.51l36.67,17.09c12.12,5.65,26.3,4.19,37.02-3.8,41.72-31.11,74.13-73.04,93.73-121.26,5.03-12.38,2.87-26.48-5.65-36.78l-25.78-31.18c-4.74-5.73-3.93-14.22,1.8-18.96,5.73-4.74,14.22-3.93,18.96,1.8l25.78,31.18c14.84,17.95,18.61,42.5,9.84,64.08-21.45,52.77-56.92,98.66-102.58,132.71-18.67,13.92-43.38,16.46-64.49,6.62l-36.67-17.09c-.65-.3-1.27-.65-1.84-1.04Z"/>
    <path class="cls-5" d="M1768.89,558.35c46.95,12.84,82.99,54.01,86.88,105.33,4.17,54.66-29.47,103.5-78.86,120.8h-.01c-9.55,3.37-19.7,5.53-30.28,6.34-65.25,4.97-122.18-43.9-127.13-109.15-4.97-65.26,43.9-122.18,109.15-127.15,13.94-1.05,27.5,.34,40.26,3.84Z"/>
    <path class="cls-16" d="M1777.65,541.88c46.38,12.69,81.98,53.36,85.82,104.04,4.12,54-29.11,102.24-77.9,119.33h-.01c-9.43,3.33-19.46,5.46-29.91,6.26-64.45,4.91-120.69-43.36-125.59-107.82-4.91-64.47,43.36-120.69,107.82-125.6,13.77-1.04,27.17,.34,39.77,3.79Z"/>
    <path class="cls-14" d="M1630.06,663.69c4.91,64.46,61.14,112.73,125.59,107.82,10.44-.8,20.47-2.93,29.89-6.24l.03-.02c30.01-10.51,54.11-32.8,67.28-60.97-13.89,21.36-34.61,38-59.32,46.65h0c-9.44,3.33-19.47,5.46-29.91,6.26-64.46,4.91-120.68-43.37-125.59-107.82-1.58-20.76,2.34-40.66,10.56-58.27-13.5,20.76-20.54,45.98-18.51,72.59Z"/>
    <g class="cls-3">
      <path class="cls-4" d="M1861.55,636.82c-16.31-52.62-67.27-88.94-124.53-84.56-52.28,3.97-94.21,40.64-107.33,88.45,6.52-54.35,50.65-98.29,107.31-102.59,61.39-4.67,115.3,38.88,124.55,98.71Z"/>
    </g>
    <path class="cls-18" d="M1675.56,760.88c-31.37-21.11-53.15-55.84-56.24-96.38-5.35-70.28,47.47-131.8,117.75-137.15,34.04-2.59,67.05,8.24,92.96,30.47,25.9,22.24,41.6,53.24,44.19,87.28h0c5.35,70.27-47.47,131.8-117.75,137.15-29.73,2.26-57.91-5.89-80.91-21.37Zm130.37-194.38c-19.72-13.27-43.16-19.5-67.22-17.66-58.43,4.45-102.35,55.6-97.9,114.03,4.45,58.44,55.61,102.35,114.03,97.9,58.43-4.45,102.35-55.6,97.9-114.03h0c-2.15-28.31-15.2-54.08-36.74-72.57-3.23-2.77-6.59-5.33-10.07-7.67Z"/>
    <circle class="cls-13" cx="1745.49" cy="656.24" r="81.5" transform="translate(47.21 1426.46) rotate(-45)"/>
    <path class="cls-1" d="M1664.58,646.41c10.43-29.52,37.47-51.63,70.69-54.14,44.89-3.42,84.04,30.19,87.46,75.08,.41,5.44,.28,10.79-.36,16,3.67-10.34,5.27-21.62,4.39-33.28-3.41-44.88-42.57-78.5-87.45-75.09-39.44,3.01-70.18,33.6-74.72,71.44Z"/>
    <g class="cls-7">
      <path class="cls-4" d="M1755.99,575.41l-28.37,160.37c7.7,1.74,15.78,2.37,24.07,1.74,9.76-.74,18.99-3.18,27.41-7l23.44-132.47c-12.42-12.17-28.65-20.33-46.54-22.63Z"/>
    </g>
    <g class="cls-7">
      <path class="cls-4" d="M1699.17,589.17l-20.2,114.18c8,11.28,18.79,20.38,31.26,26.38l27.36-154.6c-14.28,1.38-27.37,6.38-38.43,14.04Z"/>
    </g>
    <path class="cls-18" d="M1696.2,729.67c-21.72-14.61-36.79-38.65-38.93-66.71-3.7-48.64,32.87-91.22,81.51-94.92h0c23.56-1.8,46.4,5.68,64.34,21.08,17.93,15.39,28.79,36.85,30.58,60.41,3.7,48.63-32.86,91.22-81.49,94.93-20.59,1.57-40.09-4.08-56.01-14.8Zm90.78-135.36c-13.83-9.3-30.27-13.67-47.14-12.38h0c-40.98,3.12-71.79,38.99-68.67,79.97,3.12,40.98,39,71.79,79.99,68.67,40.97-3.13,71.77-39.01,68.66-79.98-1.51-19.85-10.66-37.93-25.76-50.9-2.26-1.94-4.62-3.74-7.06-5.38Zm-47.67-19.33l.04,.03-.04-.03Z"/>
    <path class="cls-13" d="M2089.19,865.85c53.17,40.14,73.66,102.63,73.66,102.63,0,0-65.71-2.59-118.88-42.72-53.17-40.14-73.66-102.63-73.66-102.63,0,0,65.71,2.59,118.88,42.72Z"/>
    <path class="cls-16" d="M2089.19,865.85c53.17,40.14,73.66,102.63,73.66,102.63,0,0-65.71-2.59-118.88-42.72-53.17-40.14-73.66-102.63-73.66-102.63,0,0,65.71,2.59,118.88,42.72Z"/>
    <g class="cls-7">
      <path class="cls-4" d="M2036.67,837.64l-.34,3.83s-32.43-8.36-44.36-6.63c34.81,27.75,76.58,62.44,76.58,62.44,0,0-44.79-30.67-81.03-56.53,1.62,11.96,18.51,40.84,18.51,40.84l-3.61,1.36c-15.83-21.67-25.19-42.22-29.41-52.68-1.83-4.53-2.7-7.16-2.7-7.16,0,0,2.75,.11,7.59,.63,11.19,1.2,33.55,4.58,58.75,13.88Z"/>
    </g>
    <g class="cls-8">
      <path class="cls-18" d="M2089.19,865.85c53.18,40.15,73.66,102.62,73.66,102.62,0,0-65.71-2.58-118.88-42.72-8.96-6.76-17-14.16-24.15-21.79,45.88,23.66,94.09,46.88,103.38,34.57,9.29-12.31-26.24-52.31-61.58-89.94,9.29,4.79,18.61,10.5,27.57,17.26Z"/>
    </g>
    <path class="cls-18" d="M2044.53,942.68c-2.92-1.96-5.81-4.02-8.67-6.18-55.89-42.19-77.45-106.46-78.34-109.18-1.37-4.19-.61-8.79,2.05-12.31,2.66-3.52,6.87-5.52,11.28-5.34,2.85,.11,70.56,3.17,126.46,45.43h0c55.89,42.19,77.45,106.46,78.34,109.18,1.37,4.19,.61,8.79-2.05,12.31-2.66,3.52-6.87,5.52-11.28,5.34-2.71-.11-63.8-2.93-117.79-39.25Zm-52.63-103.26c10.1,20.52,29.37,52.32,60.18,75.59,30.82,23.28,66.67,33.08,89.18,37.18-10.1-20.52-29.37-52.32-60.18-75.59-30.81-23.27-66.67-33.08-89.18-37.18Z"/>
    <g class="cls-7">
      <path class="cls-4" d="M1391.29,354.75c32.51-13.66,128.51-10.89,137.4,19.06,8.46,28.49-169.92-5.4-137.4-19.06Z"/>
    </g>
  </g>
  <g>
    <path class="cls-4" d="M1823.69,1012.67s42.5-126,40.51-197.01c-1.4-49.95-67.16-72.3-98.07-7.74-16.44,34.33-9.19,58.45-15.24,62.26-6.05,3.81-46.46,33.67-79.4,74.85"/>
    <path class="cls-18" d="M1814.76,1009.66c8.16-66.43,29.33-130.53,29.78-196.55-3.49-29.85-36.13-34.53-53-10.77-12.29,15.77-17.98,37.51-18.78,57.88-.4,4.19-.42,6.75-1.66,11.59-1.58,6.62-6.1,12.1-12.6,16.06-26.23,21.79-51.21,42.99-79.66,63.05-4.38,3.26-10.62,2.28-13.77-2.18-2.06-2.9-2.29-6.56-.95-9.59,15.76-35.02,42.69-62.49,74.31-83.33,0,0,2.35-1.54,2.35-1.54-2.44,1.41-4.51,4.13-5.09,5.32-.54,.96-.7,1.44-.96,2.27-.11,.49,.05-.22,.13-1.12,1.05-16.14,2.94-32.46,8.83-48.02,13.11-39.91,51.92-75.91,96.7-59.5,25.4,9.14,42.19,34.54,43.24,60.96,1.29,48.86-10.08,95.31-24.95,140.78-7.2,20.81-15.33,41.12-26.07,60.74-2.54,4.64-8.36,6.34-12.99,3.8-3.62-1.98-5.46-5.97-4.87-9.82h0Z"/>
  </g>
  <path class="cls-4" d="M1441.65,2219.32s-40.8-61.03-70.93-112.13c-40-67.83,40.27-150.8,110.98-96.6,79.87,61.23,127.26,135.79,127.26,135.79l-136.61,67.22"/>
  <path class="cls-4" d="M1533.29,2178.22l-78.56,38.66-13.08,2.46s-40.79-61.07-70.94-112.14c-16.35-27.77-12.56-58.13,2.51-80.51,10.86,2.38,21.92,7.46,32.8,15.78,79.87,61.24,127.28,135.76,127.28,135.76Z"/>
  <path class="cls-10" d="M1533.29,2178.22l-78.56,38.66-13.08,2.46s-40.79-61.07-70.94-112.14c-16.35-27.77-12.56-58.13,2.51-80.51,10.86,2.38,21.92,7.46,32.8,15.78,79.87,61.24,127.28,135.76,127.28,135.76Z"/>
  <path class="cls-18" d="M1433.87,2230.88c-1.46-.98-2.76-2.26-3.8-3.82-.41-.61-41.36-61.94-71.35-112.8-22.08-37.44-14.5-83.95,18.43-113.11,32.46-28.74,76.83-29.41,113.03-1.62,80.9,62.02,128.56,136.24,130.55,139.37,2.12,3.34,2.73,7.43,1.66,11.24-1.07,3.81-3.71,6.99-7.26,8.74l-136.61,67.22c-6.91,3.4-15.26,.56-18.65-6.35-3.4-6.9-.55-15.26,6.35-18.65l122.12-60.09c-17-23.56-57.62-75.3-115.1-119.36-30.52-23.46-60.09-15.14-77.61,.37-18.65,16.51-30.64,48-12.89,78.09,29.59,50.19,70.11,110.86,70.51,111.47,4.28,6.4,2.56,15.05-3.84,19.33-4.84,3.24-10.98,3.04-15.53-.02Z"/>
  <g>
    <g>
      <path class="cls-4" d="M1959.66,1027.78c-48.42,64.54-85.41,134.52-76.49,180.48,6.41,33.01,143.18,171.69,143.18,171.69l251.54-460.79s-11.61-6.57-28.72-15.08c-35.59-17.65-95.14-43.52-123.42-35.04-30.72,9.2-106.93,79.96-166.09,158.75Z"/>
      <path class="cls-15" d="M1959.66,1027.78c-48.42,64.54-85.41,134.52-76.49,180.48,6.41,33.01,143.18,171.69,143.18,171.69l251.54-460.79s-11.61-6.57-28.72-15.08c-55.42,31.08-133.53,83.22-208.32,161.96-51.63,54.35-91.44,21.41-81.19-38.25Z"/>
      <path class="cls-17" d="M2029.58,1403.1l-13.17-13.35c-32.77-33.24-140.23-144.38-146.91-178.85-21.25-109.67,190.54-336.71,252.23-355.2,46.28-13.87,151.21,44.63,163.02,51.35l11.9,6.77-267.08,489.29Zm229.41-478.43c-41.89-22.34-105.33-49.45-129.25-42.29-22.93,6.88-85.77,61.95-142.77,132.98-64.04,79.81-97.72,150.92-90.1,190.23,3.27,16.87,64.61,87.56,126.27,151.16l235.85-432.09Z"/>
    </g>
    <g>
      <circle class="cls-4" cx="2571.54" cy="1478.55" r="698.3"/>
      <path class="cls-6" d="M2928.85,2078.64c-258.04,153.85-596.44,128.07-829.23-85.38-284.25-260.64-303.4-702.39-42.76-986.64,101.78-111,231.17-181.61,367.96-210.85-191.16,296.64-48.19,794.18,346.82,1156.37,50.76,46.54,103.43,88.77,157.21,126.5Z"/>
      <path class="cls-18" d="M2174.28,2069.77c-29.24-19.67-57.34-41.74-84.09-66.27-140.22-128.57-221.98-304.05-230.22-494.12-8.24-190.07,58.03-371.97,186.61-512.19,128.57-140.22,304.05-221.98,494.12-230.22,190.06-8.24,371.96,58.03,512.19,186.61,289.46,265.42,309.03,716.84,43.61,1006.31-240.89,262.72-635.05,303.1-922.22,109.88Zm778.18-1159.96c-120.38-81-262.89-121.39-410.55-114.99-182.63,7.92-351.25,86.48-474.79,221.21-123.54,134.73-187.22,309.52-179.31,492.14,7.92,182.63,86.48,351.25,221.21,474.79,278.16,255.03,711.9,236.23,966.94-41.9l10.27,9.42-10.27-9.42c255.03-278.14,236.23-711.9-41.91-966.94-25.8-23.65-53.08-45.13-81.6-64.31Z"/>
      <path class="cls-18" d="M2172,2073.17c-29.41-19.79-57.66-41.98-84.57-66.64-68.09-62.43-122.65-136-162.19-218.67-100.06-209.3-92.58-455,20.01-657.25,25.24-45.38,55.71-88.29,90.57-127.54,2.59-2.92,5.17-5.81,7.74-8.61,136.99-149.4,331.85-234.03,534.61-232.17,177.18,1.58,346.74,68.47,477.46,188.31,291.12,266.94,310.8,720.95,43.86,1012.07-242.27,264.22-638.68,304.84-927.5,110.51Zm779.02-1159.31c-109.84-73.9-239.19-114.39-373.16-115.59-192.58-1.76-377.65,78.61-507.75,220.51-2.46,2.68-4.92,5.44-7.34,8.16-33.14,37.32-62.09,78.08-86.05,121.17-106.93,192.08-114.03,425.43-18.99,624.22,37.53,78.49,89.36,148.36,154.04,207.66,276.51,253.5,707.7,234.83,961.22-41.66l13.27,12.16-13.27-12.16c253.52-276.49,234.84-707.7-41.66-961.22-25.31-23.21-52.18-44.34-80.3-63.26Z"/>
      <path class="cls-18" d="M2151.26,2013.71c-31.75-21.36-62.15-45.29-90.95-71.7-50.21-46.04-93.85-98.21-129.7-155.05-.27-.42-.51-.86-.72-1.31-99.34-207.8-91.92-451.73,19.87-652.53,22.8-43.89,51.6-85.01,85.43-121.9,1.57-1.72,3.12-3.39,4.76-5.04,2.47-2.78,4.94-5.55,7.42-8.25,136.01-148.33,329.47-232.35,530.77-230.51,.65,0,1.3,.06,1.94,.16,142.49,23.08,275.46,88.14,384.56,188.17,290.71,266.56,324.39,704.63,75.08,976.53-120.9,131.85-289.45,205.41-474.6,207.13-146.98,1.37-290.49-42.71-413.84-125.71Zm-198.51-239.84c34.56,54.67,76.59,104.86,124.93,149.18,135.89,124.6,308.9,192.31,487.19,190.65,177.95-1.65,339.86-72.26,455.89-198.8l9.47,8.69-9.47-8.69c239.73-261.45,206.75-683.22-73.51-940.2-105.13-96.4-233.16-159.18-370.33-181.58-193.69-1.5-379.74,79.45-510.61,222.18-2.47,2.7-4.95,5.48-7.38,8.21-.18,.2-.41,.45-.61,.64-1.46,1.44-2.8,2.92-4.19,4.42-32.3,35.23-59.81,74.5-81.74,116.71-107.79,193.64-115.06,428.44-19.64,628.58Z"/>
      <path class="cls-18" d="M2980.31,1877.82c-221.3,241.35-610.2,244.98-868.56,8.08-219.01-200.81-273.95-510.03-150.77-746.54,22.1-42.54,49.97-82.71,83.67-119.47,1.53-1.67,3.02-3.29,4.62-4.88,222.01-236.5,607.32-238.42,863.9-3.16,258.37,236.9,288.43,624.62,67.13,865.96Z"/>
      <path class="cls-11" d="M2980.31,1877.82c-221.3,241.35-610.2,244.98-868.56,8.08-194.31-178.17-259.48-441.66-185.61-664.02,2.71,183.12,81.57,369.37,232.67,507.92,267.59,245.36,664.66,252.21,908.02,23.01-22.52,44.62-51.36,86.67-86.51,125.01Z"/>
      <path class="cls-18" d="M2186.81,1958.13c-28.63-19.26-56.04-40.84-82.01-64.65-218.44-200.29-281.33-512.35-152.94-758.87,22.87-44,51.54-84.94,85.21-121.67,1.64-1.79,3.25-3.53,4.97-5.24,109.12-116.25,260.56-180.79,426.18-181.46,165.47-.67,325.95,62.56,451.9,178.04,126.89,116.34,203.86,271.93,216.74,438.1,12.9,166.43-40.01,323.55-148.98,442.39l-7.58-6.95,7.58,6.95c-108.98,118.85-260.93,185.16-427.86,186.72-132.56,1.23-261.97-38.51-373.22-113.36Zm641.22-1000.32c-246.75-166.02-575.41-144.39-771.26,64.24-1.76,1.75-3.13,3.25-4.54,4.79-32.46,35.4-60.09,74.85-82.13,117.26-124.1,238.29-63,540.2,148.59,734.22,123.02,112.8,279.69,174.1,441.14,172.6,161.18-1.5,307.81-65.44,412.9-180.05,105.08-114.6,156.09-266.21,143.63-426.9-12.48-160.95-87.11-311.72-210.14-424.53-24.88-22.81-51.05-43.36-78.2-61.63Z"/>
      <g class="cls-7">
        <path class="cls-4" d="M2958.11,1362.11s-151.94-286.37-401.61-347.72c-.26-.06-.52-.13-.79-.19-52.56-12.87-137.46,5.7-188.92,21.13-68.05,20.41-111.81,44.5-149.5,67.22-114.59,69.13-155.07,123.2-155.07,123.2,20.36-102.42,66.45-181.02,161.32-239.56,9.37-5.75,19.24-11.32,29.57-16.72,2.37-1.25,4.75-2.44,7.17-3.6,0-.06,.06-.07,.16-.05,21.7-9.45,56.43-29.32,90.24-39.35,101.95-30.32,241.87-40.53,363.25,38.96,226.96,148.63,261.96,399,244.18,396.68Z"/>
      </g>
      <g class="cls-7">
        <ellipse class="cls-4" cx="2801.64" cy="1738.39" rx="109.88" ry="95.66" transform="translate(-383.67 2589.85) rotate(-46.78)"/>
      </g>
      <g class="cls-7">
        <ellipse class="cls-4" cx="2663.71" cy="1882.71" rx="45.39" ry="39.48" transform="translate(-457.92 2828.97) rotate(-52.12)"/>
      </g>
      <g>
        <g>
          <path class="cls-4" d="M3172.3,1899.39l-208.41,179.61-129.82,111.88-73.39-61.14-6.93-5.79c-26.75-32.35,33.97-129.6,135.48-217.06,2.27-1.98,4.64-3.97,6.96-5.91,99.2-83.55,199.04-125.4,225.13-93.76l4.41,7.94,46.57,84.23Z"/>
          <path class="cls-15" d="M2963.89,2079l-129.82,111.88-73.39-61.14-6.93-5.79c-26.75-32.35,33.97-129.6,135.48-217.06,2.27-1.98,4.64-3.97,6.96-5.91l15.3-7.32s-31.65,49.08-17.96,73.82c14.44,26.21,76.48-9.61,76.48-9.61l-6.12,121.14Z"/>
        </g>
        <path class="cls-18" d="M2824.01,2205.83c-.51-.34-1-.71-1.48-1.11l-80.3-66.91c-.86-.72-1.66-1.52-2.37-2.39-39.09-47.42,39.64-157.71,137.62-242.14,85.52-73.7,172.88-118.59,222.55-114.36,18.97,1.62,29.61,10.04,35.2,16.82,.71,.86,1.34,1.78,1.87,2.76l50.94,92.2c4.12,7.46,2.45,16.78-4,22.34l-338.24,291.49c-6.19,5.34-15.12,5.78-21.78,1.3Zm-57.08-94.29l66.92,55.76,315.61-271.99-42.81-77.48c-2.39-2.04-6.5-2.78-9.69-3.05-33.13-2.83-111.1,32.59-196,105.76-108.13,93.18-144.51,173.46-134.03,191Z"/>
        <path class="cls-4" d="M3071.53,2077.64s-.1,.01-.15,.06c-7.57,7.23-15.48,14.35-23.73,21.46-93.36,80.46-189.01,121.58-213.58,91.71-23.86-28.93,28.08-114.23,116.84-192.95,2.52-2.25,5.14-4.51,7.76-6.77,93.36-80.46,189.06-121.54,213.63-91.76,22.39,27.2-22,103.87-100.77,178.25Z"/>
        <path class="cls-15" d="M3071.38,2077.7c-7.57,7.23-15.48,14.35-23.73,21.46-93.36,80.46-189.01,121.58-213.58,91.71-23.86-28.93,28.08-114.23,116.84-192.95-19.67,41.91-50.53,119.8-11.84,128.36,22.63,4.95,83.44-23.11,132.31-48.59Z"/>
        <path class="cls-18" d="M2828.88,2210.21c-3.77-2.53-6.61-5.32-8.7-7.86-36.57-44.36,36.08-146.66,126.75-224.8,78.97-68.06,159.77-109.49,205.85-105.56,17.96,1.53,28.08,9.55,33.39,16,36.57,44.36-36.08,146.67-126.75,224.8-78.97,68.06-159.77,109.49-205.85,105.56-10.89-.93-18.89-4.24-24.69-8.14Zm328.46-300.27c-2.1-1.42-5.54-1.92-7.62-2.09-30.2-2.58-101.48,29.9-179.3,96.97-96.63,83.27-134.21,160.4-122.47,174.64,1.78,2.15,6.2,2.83,8.68,3.03,30.2,2.58,101.48-29.9,179.3-96.97,96.63-83.27,134.21-160.4,122.47-174.64-.29-.35-.65-.66-1.06-.94Z"/>
      </g>
    </g>
  </g>
  <path class="cls-18" d="M1057.46,3041.43c48.93,34.19,99.7,70.28,157.44,87.67-61.28,2.28-122.54-39.48-157.44-87.67h0Z"/>
  <path class="cls-18" d="M1602.28,3361.21c40.6,39.28,90.5,71.55,149.1,67.97-57.17,24.72-124.31-14.96-149.1-67.97h0Z"/>
  <path class="cls-18" d="M1206.51,2841.91c-69.75-46.93-118.48-106.38-124.17-147.69-1.16-8.44,4.73-16.22,13.17-17.39,8.44-1.16,16.22,4.74,17.39,13.17,3.98,28.87,43.87,82.09,112.87,127.87,44.23,29.44,133.3,77.07,232.89,65.33,8.46-.99,16.13,5.05,17.12,13.52,1,8.46-5.05,16.13-13.51,17.13-91.54,10.79-184.59-24.06-255.75-71.94Z"/>
  <path class="cls-18" d="M1563.61,3084.96c-73.57-49.5-80.46-118.69-80.79-122.53-.72-8.49,5.58-15.95,14.07-16.67,8.46-.72,15.91,5.55,16.66,14,.41,4.28,11.44,102.84,152.13,134.29,123.32,27.58,220.99-54.42,221.97-55.26,6.46-5.53,16.19-4.77,21.74,1.67,5.54,6.46,4.82,16.18-1.63,21.73-4.43,3.81-110.05,92.99-248.81,61.97-40.26-9-71.35-23.05-95.34-39.19Z"/>
  <path class="cls-4" d="M1422.46,2575.54c-137.85-126.68-121.25-276.6-79.94-268.22,62.95,12.78,122.11,182.79,446.51,345.51,114.55,57.46-133.6,136.8-366.57-77.29Z"/>
  <g>
    <g>
      <g>
        <path class="cls-4" d="M1599.71,2027.31c-26.24,8.91-235.17,160.8-235.17,160.8l1.83,16.8c3.58,32.77,19.45,62.94,44.45,84.43,70.59,60.68,219.22,188.44,291.93,250.99,27.83,23.94,69.52,21.8,94.78-4.84,13.22-13.94,28.6-30.36,45.15-48.41,29.49-32.17,73.93-83.81,103.24-118.15,18.35-21.51,21.66-52.04,8.35-76.99-14.99-28.1-34.15-61.89-44.92-72.56-84.82-84.01-293.12-197.69-309.64-192.08Z"/>
        <path class="cls-18" d="M1701.53,2556.9c-2.71-1.82-5.33-3.82-7.86-6-72.7-62.54-221.33-190.31-291.92-250.99-27.77-23.87-45.25-57.07-49.22-93.49l-1.83-16.8c-.54-4.97,1.62-9.84,5.66-12.78,35.17-25.57,212-153.59,238.88-162.72,6.36-2.16,14.81-2.41,53.96,16.48,24.49,11.82,55.32,28.56,86.81,47.15,37.32,22.02,129.87,78.96,183.16,131.75,3.63,3.59,14.66,14.53,47.41,75.9,16.11,30.21,12.17,66.55-10.04,92.59-31.18,36.55-74.46,86.78-103.57,118.52-14.66,16-29.91,32.34-45.31,48.59-28.12,29.65-73.03,34.07-106.11,11.81Zm-322.26-362.26l.96,8.77c3.2,29.37,17.3,56.14,39.68,75.38,70.59,60.68,219.22,188.45,291.93,251,22.18,19.05,55.41,17.41,75.58-3.86,15.3-16.13,30.43-32.36,44.99-48.24,28.83-31.45,71.87-81.41,102.91-117.78,14.72-17.26,17.34-41.35,6.65-61.38-27.76-52.04-38.92-65.74-42.43-69.22-79.71-78.95-268.31-182.31-297.19-188.04-22.91,10.44-144.86,96.64-223.09,153.39Zm224.92-154.13h0Zm-4.48-13.19l.04,.03-.04-.03Z"/>
      </g>
      <path class="cls-4" d="M1599.71,2027.31c-26.24,8.91-235.17,160.8-235.17,160.8l1.83,16.8c3.58,32.77,19.45,62.94,44.45,84.43,70.59,60.68,219.22,188.44,291.93,250.99,27.83,23.94,69.52,21.8,94.78-4.84,13.22-13.94,28.6-30.36,45.15-48.41,29.49-32.17,73.93-83.81,103.24-118.15,18.35-21.51,21.66-52.04,8.35-76.99-14.99-28.1-34.15-61.89-44.92-72.56-84.82-84.01-293.12-197.69-309.64-192.08Z"/>
      <path class="cls-10" d="M1842.69,2487.11c-16.56,18.06-31.91,34.46-45.15,48.37-25.26,26.66-66.94,28.82-94.77,4.86-72.7-62.55-221.32-190.32-291.93-250.99-25.01-21.49-40.89-51.67-44.44-84.42l-1.83-16.81s208.93-151.89,235.18-160.81c2.57-.86,9.65,1.13,20.19,5.4-37.28,26.57-65.75,47.28-65.75,47.28l1.83,16.81c3.59,32.78,19.43,62.92,44.45,84.42,70.44,60.52,218.54,187.82,291.4,250.52-17.61,20.23-35.09,39.99-49.17,55.37Z"/>
      <path class="cls-18" d="M1701.53,2556.9c-2.71-1.82-5.33-3.82-7.86-6-72.7-62.54-221.33-190.31-291.92-250.99-27.77-23.87-45.25-57.07-49.22-93.49l-1.83-16.8c-.54-4.97,1.62-9.84,5.66-12.78,35.17-25.57,212-153.59,238.88-162.72,6.36-2.16,14.81-2.41,53.96,16.48,24.49,11.82,55.32,28.56,86.81,47.15,37.32,22.02,129.87,78.96,183.16,131.75,3.63,3.59,14.66,14.53,47.41,75.9,16.11,30.21,12.17,66.55-10.04,92.59-31.18,36.55-74.46,86.78-103.57,118.52-14.66,16-29.91,32.34-45.31,48.59-28.12,29.65-73.03,34.07-106.11,11.81Zm-322.26-362.26l.96,8.77c3.2,29.37,17.3,56.14,39.68,75.38,70.59,60.68,219.22,188.45,291.93,251,22.18,19.05,55.41,17.41,75.58-3.86,15.3-16.13,30.43-32.36,44.99-48.24,28.83-31.45,71.87-81.41,102.91-117.78,14.72-17.26,17.34-41.35,6.65-61.38-27.76-52.04-38.92-65.74-42.43-69.22-79.71-78.95-268.31-182.31-297.19-188.04-22.91,10.44-144.86,96.64-223.09,153.39Zm224.92-154.13h0Zm-4.48-13.19l.04,.03-.04-.03Z"/>
      <g>
        <path class="cls-4" d="M1513.98,1987.82l-133.95,158.6c-23.27,27.55-19.96,68.72,7.42,92.19l278.25,238.57c27.27,23.38,68.27,20.5,92-6.46l148.4-168.56c24.96-28.35,20.91-71.86-8.86-95.12l-292.69-228.62c-27.8-21.72-67.8-17.58-90.56,9.38Z"/>
        <path class="cls-18" d="M1663.97,2493.36c-2.53-1.7-4.97-3.56-7.34-5.59l-278.25-238.57c-33.06-28.35-37.1-78.49-9-111.76l133.95-158.6c27.71-32.82,75.93-37.8,109.79-11.37l292.69,228.62c17.45,13.63,28.19,33.28,30.25,55.33,2.06,22.05-4.87,43.35-19.51,59.97l-148.4,168.56c-26.56,30.17-71.57,35.36-104.19,13.41Zm-149.99-505.54l10.64,8.99-133.95,158.6c-18.26,21.62-15.64,54.2,5.85,72.63l278.24,238.57c21.36,18.34,53.88,16.04,72.48-5.09l148.4-168.56c9.51-10.8,14.01-24.64,12.67-38.97-1.34-14.33-8.32-27.1-19.66-35.96l-292.69-228.62c-21.97-17.21-53.34-13.94-71.34,7.39l-10.64-8.99Z"/>
      </g>
      <path class="cls-18" d="M1474.84,2327.22c-.34-.23-.68-.49-1-.76-4.37-3.77-4.86-10.37-1.09-14.74l62.99-73.02c11.78-13.66,18.54-31.11,19.03-49.13l1.16-42.32c.6-21.93,8.59-43.35,22.5-60.31l62.53-76.26c3.66-4.46,10.24-5.13,14.71-1.45,4.46,3.66,5.11,10.24,1.45,14.71l-62.53,76.26c-10.98,13.4-17.3,30.31-17.77,47.63l-1.16,42.32c-.63,22.82-9.19,44.91-24.1,62.21l-62.99,73.02c-3.49,4.05-9.41,4.76-13.74,1.85Z"/>
    </g>
    <g>
      <path class="cls-2" d="M1655.05,2258.99s4.53,29.18,11.2,45.48c4.29,10.49,12.25,19.75,23.54,26.16,28.83,16.37,68.49,7.98,88.59-18.73,9.47-12.59,12.91-27,10.87-40.44-2.28-15.07-13.07-53.22-13.07-53.22l-121.12,40.75Z"/>
      <path class="cls-18" d="M1680.05,2336.89c-10.7-7.2-18.76-16.95-23.47-28.45-7.06-17.24-11.66-46.59-11.86-47.83-.78-5.03,2.17-9.88,7-11.51l121.12-40.75c2.71-.91,5.68-.67,8.21,.66,2.52,1.34,4.4,3.65,5.18,6.4,.45,1.58,11,38.95,13.35,54.5,2.53,16.75-2.03,33.9-12.86,48.28-23.11,30.72-68.91,40.38-102.1,21.53-1.57-.89-3.1-1.84-4.58-2.83Zm-13.15-70.85c1.79,9.51,5.04,24.74,9.03,34.48,3.57,8.71,10.15,15.98,19.03,21.03,24.38,13.84,58.05,6.7,75.08-15.92,7.42-9.86,10.58-21.44,8.89-32.59-1.43-9.47-6.57-29.12-9.88-41.35l-102.14,34.36Z"/>
      <ellipse class="cls-13" cx="1715.72" cy="2238.89" rx="64.03" ry="56.27" transform="translate(-477.2 464.79) rotate(-13.56)"/>
      <ellipse class="cls-13" cx="1715.72" cy="2238.89" rx="36.1" ry="31.73" transform="translate(-477.2 464.79) rotate(-13.56)"/>
      <path class="cls-2" d="M1695.19,2266.13c16.28,9.24,38.62,4.5,49.95-10.53,3.49-4.65,5.56-9.79,6.23-14.87-12.07,10.38-30.54,12.77-44.51,4.84-11.21-6.37-16.59-17.75-15.13-29.14-1.99,1.67-3.86,3.6-5.47,5.74-11.28,15.06-7.31,34.75,8.92,43.96Z"/>
      <path class="cls-18" d="M1669.58,2293.51c-13.98-9.41-23.38-23.09-26.69-39.02-3.69-17.79,.67-36.09,12.28-51.52,23.11-30.72,68.91-40.38,102.1-21.53,16.49,9.35,27.62,24.24,31.28,41.85,3.7,17.79-.66,36.09-12.28,51.52-23.11,30.72-68.91,40.38-102.1,21.53-1.58-.9-3.11-1.84-4.59-2.84Zm80.56-91.92c-1.03-.69-2.09-1.35-3.19-1.97-24.38-13.84-58.06-6.7-75.08,15.92-7.94,10.56-10.97,22.88-8.51,34.7,2.42,11.65,9.92,21.57,21.13,27.93,24.38,13.84,58.06,6.7,75.07-15.92,7.95-10.56,10.97-22.89,8.51-34.71-2.18-10.5-8.5-19.6-17.94-25.95Z"/>
    </g>
  </g>
  <path class="cls-4" d="M1819.39,2499.47s107.35,120.07,235.14,228.8c43.94,.09,100.52-47.6,65.2-120.32-64.46-77.61-206.95-210.02-206.95-210.02,0,0-105.11-19.11-93.39,101.54Z"/>
  <path class="cls-10" d="M2054.53,2728.29c-127.78-108.76-235.13-228.8-235.13-228.8-6.13-63.11,19.72-88,45.74-97.35-2.02,6.28-5.73,15.76-8.95,26.33-6.44,21.15-.96,44.12,14.12,60.29,32.82,35.19,102.9,108.2,184.99,180.87,19.08,16.89,46.44,20.08,69.3,8.83,.61-.3,1.2-.58,1.75-.83-11.67,31.94-44.25,50.72-71.82,50.67Z"/>
  <path class="cls-18" d="M2046.76,2739.84c-.43-.29-.85-.61-1.25-.95-127.04-108.1-235.42-228.92-236.5-230.13-1.98-2.21-3.2-4.99-3.48-7.94-4.15-42.8,4.96-74.84,27.11-95.21,32.66-30.06,80.62-21.75,82.65-21.39,2.62,.47,5.05,1.69,6.99,3.5,5.85,5.43,143.9,133.91,208.19,211.33,.72,.86,1.33,1.81,1.82,2.82,16.86,34.72,16.57,69.11-.82,96.82-16.37,26.1-47.3,43.59-76.95,43.52-2.77,0-5.47-.84-7.75-2.37Zm-213.88-246.23c18.25,20.09,114.66,124.77,226.53,220.51,18.69-1.77,38.07-13.7,48.45-30.24,12.03-19.18,12.05-42.78,.06-68.34-58.22-69.69-179.88-184.25-201.35-204.34-9.86-.93-37.1-1.72-55.18,15.04-14.59,13.51-20.8,36.17-18.5,67.38Z"/>
</svg>